#!OML:ASF I:\salsa\salsa 7_09\Patient 1\Session 1\dancerfemale.ASF
:FULLY-SPECIFIED
:DEGREES
2352
root 13.1485 15.5665 3.61747 -1989.97 -25.923 201.811
lowerback 12.6316 1.58495 8.33113
upperback 0.332802 3.28505 3.05638
thorax -6.45412 1.29093 -2.01512
lowerneck 5.71574 -9.82857 -9.1048
upperneck 20.7784 -16.5319 5.96912
head 6.68495 -8.93676 2.51725
rclavicle 5.06901e-014 3.33958e-014
rhumerus 1.30784 40.5552 -108.75
rradius 49.2807
rwrist 3.95496
rhand -3.34901 65.3474
rfingers 7.12502
rthumb 22.379 396.624
lclavicle 5.06901e-014 3.33958e-014
lhumerus 0.671004 34.2753 23.2021
lradius 77.5885
lwrist 54.0365
lhand 15.2354 -313.216
lfingers 7.12502
lthumb 40.0732 -2088.01
rfemur -12.3071 -17.4751 39.1066
rtibia 21.9284
rfoot -6.73275 35.9138
rtoes -2.91453
lfemur -27.4557 -9.5076 -4.9329
ltibia 75.2286
lfoot -16.9147 24.7356
ltoes -6.11262
2353
root 13.1113 15.5646 3.43223 -1989.79 -26.7652 202.715
lowerback 11.5302 1.82196 7.43246
upperback -0.0887493 3.43149 3.53782
thorax -6.3547 1.39947 -0.998209
lowerneck 6.91934 -10.0826 -8.44538
upperneck 20.3261 -16.9592 5.9458
head 6.3208 -9.1502 2.48036
rclavicle 3.08116e-014 3.18055e-014
rhumerus -0.986922 40.7424 -109.829
rradius 50.3239
rwrist 3.0117
rhand -2.06731 65.8186
rfingers 7.12502
rthumb 23.6088 397.248
lclavicle 3.08116e-014 3.18055e-014
lhumerus -1.1118 33.4706 21.3418
lradius 78.5562
lwrist 55.1835
lhand 15.729 -312.984
lfingers 7.12502
lthumb 40.5374 -2087.92
rfemur -12.302 -19.4845 39.9116
rtibia 21.8129
rfoot -6.65443 37.1731
rtoes -2.88067
lfemur -29.3765 -7.73325 -4.27029
ltibia 76.6693
lfoot -12.976 25.7911
ltoes -6.50252
2354
root 13.0679 15.5642 3.2536 -1989.48 -28.156 203.905
lowerback 10.1868 1.95108 7.03596
upperback -0.447752 3.46784 3.88991
thorax -6.0215 1.4441 -0.368682
lowerneck 7.31056 -10.4985 -7.73643
upperneck 20.0257 -17.5101 6.02967
head 6.15285 -9.37197 2.40556
rclavicle -1.05356e-014 -6.36111e-015
rhumerus -2.63934 40.4071 -110.519
rradius 51.0706
rwrist 2.89096
rhand -1.17073 66.8846
rfingers 7.12502
rthumb 24.4686 398.427
lclavicle -1.05356e-014 -6.36111e-015
lhumerus -2.26286 32.9044 19.9386
lradius 79.5501
lwrist 56.3217
lhand 16.0522 -312.881
lfingers 7.12502
lthumb 40.8411 -2087.91
rfemur -12.7485 -21.6164 41.0778
rtibia 21.5697
rfoot -6.48013 38.3874
rtoes -1.7272
lfemur -32.1876 -5.66989 -2.93111
ltibia 78.3204
lfoot -9.9274 25.2964
ltoes -6.62983
2355
root 13.0244 15.5854 3.08276 -1989.45 -30.0812 204.432
lowerback 9.92178 1.70048 6.00216
upperback -0.902596 3.05123 3.87103
thorax -6.42986 1.27202 0.247519
lowerneck 7.68457 -10.7306 -6.46922
upperneck 19.786 -17.7599 5.88495
head 5.91308 -9.43857 2.20515
rclavicle -2.60408e-014 4.45278e-014
rhumerus -4.41595 40.4371 -111.835
rradius 51.4517
rwrist 3.19739
rhand -1.00175 68.1229
rfingers 7.12502
rthumb 24.6305 399.688
lclavicle -2.60408e-014 4.45278e-014
lhumerus -4.14848 32.0499 17.5081
lradius 80.8083
lwrist 57.8089
lhand 16.3927 -312.619
lfingers 7.12502
lthumb 41.1609 -2087.75
rfemur -12.7838 -23.7507 41.4148
rtibia 21.3768
rfoot -7.31903 38.8493
rtoes -2.18385
lfemur -34.7043 -3.40457 -2.23518
ltibia 79.9655
lfoot -7.03399 23.6406
ltoes -3.93843
2356
root 12.9713 15.606 2.91541 -1989.64 -32.2443 204.155
lowerback 10.4785 1.83619 4.42783
upperback -1.64312 3.17112 3.93603
thorax -7.62418 1.37645 1.15195
lowerneck 10.1485 -11.0349 -6.59576
upperneck 18.6686 -18.3054 6.38536
head 5.27063 -9.78454 2.56067
rclavicle -1.08338e-013 -3.97569e-014
rhumerus -7.18315 39.2434 -112.404
rradius 51.8044
rwrist 3.99713
rhand -1.31785 69.5214
rfingers 7.12502
rthumb 24.3275 401.045
lclavicle -1.08338e-013 -3.97569e-014
lhumerus -5.64929 30.0559 16.6072
lradius 82.3261
lwrist 59.3523
lhand 17.1779 -312.22
lfingers 7.12502
lthumb 41.8975 -2087.6
rfemur -12.2219 -25.8534 40.6762
rtibia 21.3575
rfoot -8.76797 38.8209
rtoes -3.45437
lfemur -36.4899 -1.55203 -2.44064
ltibia 81.4968
lfoot -5.00636 21.4275
ltoes -1.36403
2357
root 12.8853 15.6083 2.75289 -1990.27 -34.5302 203.737
lowerback 10.8136 4.87091 4.14804
upperback -0.492705 7.13319 5.63975
thorax -6.80442 3.32476 2.46773
lowerneck 7.7043 -13.9511 -14.3678
upperneck 18.6912 -22.6576 9.31602
head 7.22623 -11.9126 3.8509
rclavicle -8.44835e-015 1.59028e-014
rhumerus -5.34358 33.6327 -101.851
rradius 52.8861
rwrist 5.468
rhand -1.76932 71.1303
rfingers 7.12502
rthumb 23.8946 402.597
lclavicle -8.44835e-015 1.59028e-014
lhumerus 0.96044 29.497 28.8623
lradius 83.2944
lwrist 59.0594
lhand 18.2884 -311.858
lfingers 7.12502
lthumb 42.9374 -2087.59
rfemur -10.8333 -26.7103 39.3403
rtibia 21.2176
rfoot -11.2587 37.3128
rtoes -5.41201
lfemur -37.675 0.746783 -2.90303
ltibia 82.7791
lfoot -4.39418 18.118
ltoes -4.63765
2358
root 12.7763 15.6113 2.59003 -1990.52 -36.9283 203.68
lowerback 10.8283 5.03196 3.52612
upperback -0.555306 7.29644 5.49282
thorax -6.94196 3.43635 2.62066
lowerneck 7.95714 -14.5293 -14.4323
upperneck 18.2686 -23.4176 9.59149
head 7.18914 -12.2501 3.88458
rclavicle 1.47101e-014 5.64548e-014
rhumerus -6.16873 32.0028 -100.944
rradius 52.9549
rwrist 6.74477
rhand -1.09528 72.6502
rfingers 7.12502
rthumb 24.5409 404.203
lclavicle 1.47101e-014 5.64548e-014
lhumerus 0.49734 28.7604 28.7897
lradius 84.9329
lwrist 60.3011
lhand 18.7554 -311.169
lfingers 7.12502
lthumb 43.3739 -2087.06
rfemur -9.91635 -25.6141 38.5962
rtibia 20.9882
rfoot -14.4837 33.8561
rtoes -7.02816
lfemur -39.3264 3.05772 -2.87088
ltibia 83.3021
lfoot -5.24288 14.1079
ltoes -6.45536
2359
root 12.642 15.6377 2.42648 -1990.88 -39.4939 204.035
lowerback 10.6329 5.12809 3.40292
upperback -0.691236 7.41726 5.30713
thorax -6.9701 3.50731 2.4822
lowerneck 7.91531 -15.0949 -14.3813
upperneck 18.2353 -24.1642 9.72165
head 7.29655 -12.575 3.81996
rclavicle 7.65321e-014 1.82882e-014
rhumerus -6.86202 29.7742 -100.034
rradius 52.9467
rwrist 8.24487
rhand -2.10165 74.0585
rfingers 7.12502
rthumb 23.5759 405.484
lclavicle 7.65321e-014 1.82882e-014
lhumerus 0.0462046 27.9992 28.6662
lradius 86.7023
lwrist 61.5094
lhand 19.4686 -310.633
lfingers 7.12502
lthumb 44.0397 -2086.76
rfemur -8.99911 -22.9521 38.2726
rtibia 20.6611
rfoot -17.2589 28.5588
rtoes -9.79458
lfemur -40.8517 5.20283 -2.55985
ltibia 82.7056
lfoot -7.05509 10.9091
ltoes -10.4913
2360
root 12.479 15.6568 2.26728 -1991.56 -42.2576 204.472
lowerback 10.6198 5.18421 3.47435
upperback -0.818649 7.51494 5.07509
thorax -7.05959 3.55514 2.17805
lowerneck 7.15267 -15.5874 -14.1377
upperneck 18.7011 -24.7341 9.57515
head 7.60306 -12.7856 3.58295
rclavicle -8.5875e-014 -1.63003e-014
rhumerus -7.59661 27.2622 -99.0974
rradius 52.9455
rwrist 9.6099
rhand -2.42302 75.8138
rfingers 7.12502
rthumb 23.2676 407.2
lclavicle -8.5875e-014 -1.63003e-014
lhumerus -0.546952 27.0795 28.4439
lradius 88.5975
lwrist 62.8052
lhand 20.4068 -310.439
lfingers 7.12502
lthumb 44.9139 -2086.91
rfemur -7.83836 -20.7019 37.8828
rtibia 20.2731
rfoot -19.4975 23.3727
rtoes -12.8646
lfemur -42.05 7.31587 -2.52708
ltibia 81.2137
lfoot -9.55885 9.69889
ltoes -10.0757
2361
root 12.2875 15.6502 2.11976 -1992.43 -45.212 204.891
lowerback 10.7425 5.22393 3.68506
upperback -0.943745 7.6125 4.79714
thorax -7.19793 3.59361 1.7384
lowerneck 8.39267 -15.9202 -14.4296
upperneck 17.6184 -25.3389 10.5701
head 7.29386 -13.0914 3.99068
rclavicle 9.26337e-014 4.21423e-014
rhumerus -8.38469 24.9171 -97.9915
rradius 53.0652
rwrist 10.6231
rhand -3.21719 77.0489
rfingers 7.12502
rthumb 22.5055 408.34
lclavicle 9.26337e-014 4.21423e-014
lhumerus -0.892959 25.9465 28.4917
lradius 90.3858
lwrist 64.0068
lhand 20.6741 -310.393
lfingers 7.12502
lthumb 45.1625 -2086.96
rfemur -6.55047 -18.839 37.3888
rtibia 19.8581
rfoot -20.8823 18.0159
rtoes -16.2276
lfemur -42.9936 9.10933 -2.99597
ltibia 79.2009
lfoot -13.136 9.62211
ltoes -14.7377
2362
root 12.0665 15.6373 1.98027 -1993.42 -48.4048 205.488
lowerback 10.5806 5.2292 4.02443
upperback -1.03923 7.65564 4.54888
thorax -7.12823 3.60434 1.297
lowerneck 9.19674 -16.37 -14.5414
upperneck 16.9486 -25.9907 11.0079
head 7.11113 -13.4154 4.14886
rclavicle -1.21855e-013 -3.93594e-014
rhumerus -9.12689 22.8303 -96.612
rradius 53.2785
rwrist 11.5387
rhand -3.41511 78.5472
rfingers 7.12502
rthumb 22.3155 409.816
lclavicle -1.21855e-013 -3.93594e-014
lhumerus -1.39437 24.7447 28.5476
lradius 92.3863
lwrist 65.0893
lhand 20.9135 -310.058
lfingers 7.12502
lthumb 45.3851 -2086.71
rfemur -5.49397 -17.5461 36.904
rtibia 19.8238
rfoot -21.6193 12.8374
rtoes -19.7954
lfemur -43.8821 10.6357 -3.82066
ltibia 76.7353
lfoot -16.9463 10.4258
ltoes -17.4882
2363
root 11.8152 15.6463 1.84275 -1994.46 -51.9669 206.395
lowerback 9.92076 5.11829 4.28204
upperback -1.15402 7.50093 4.40733
thorax -6.82198 3.53051 1.08865
lowerneck 9.41685 -16.8118 -14.5631
upperneck 16.6531 -26.5285 11.0385
head 7.06402 -13.6659 4.11955
rclavicle -3.84151e-014 -5.08889e-014
rhumerus -9.75041 21.1664 -94.9858
rradius 53.4809
rwrist 12.5311
rhand -3.17445 80.3533
rfingers 7.12502
rthumb 22.5465 411.65
lclavicle -3.84151e-014 -5.08889e-014
lhumerus -2.65236 23.6593 28.1887
lradius 94.8835
lwrist 66.1752
lhand 20.8285 -310.253
lfingers 7.12502
lthumb 45.3061 -2086.88
rfemur -4.83463 -16.8672 36.4471
rtibia 20.2028
rfoot -21.6666 8.60566
rtoes -22.2332
lfemur -45.0207 11.6051 -4.95828
ltibia 73.5372
lfoot -20.1506 11.2679
ltoes -19.6754
2364
root 11.5378 15.6675 1.70804 -1995.43 -55.9887 207.216
lowerback 9.3369 4.89747 4.29712
upperback -1.47079 7.19045 4.11575
thorax -6.78707 3.38359 0.859912
lowerneck 9.6733 -17.144 -14.7166
upperneck 16.479 -27.0083 11.2643
head 7.08843 -13.8975 4.16675
rclavicle -9.93923e-015 2.5842e-014
rhumerus -10.5433 19.5382 -93.5072
rradius 53.5651
rwrist 13.6367
rhand -3.45665 81.6891
rfingers 7.12502
rthumb 22.2756 412.953
lclavicle -9.93923e-015 2.5842e-014
lhumerus -4.06497 22.4031 27.6372
lradius 97.456
lwrist 67.0524
lhand 20.7798 -311.205
lfingers 7.12502
lthumb 45.2608 -2087.81
rfemur -4.38006 -16.4817 35.7034
rtibia 20.9711
rfoot -21.3227 4.81698
rtoes -23.9334
lfemur -45.9721 12.1104 -6.82952
ltibia 69.8395
lfoot -22.3562 12.2549
ltoes -22.3683
2365
root 11.2135 15.7046 1.57338 -1995.71 -60.1776 206.837
lowerback 8.92174 4.75234 3.75611
upperback -1.81968 6.92608 3.49588
thorax -6.90653 3.27694 0.565497
lowerneck 10.1064 -17.3484 -15.1228
upperneck 16.5156 -27.4835 11.8032
head 7.23647 -14.1462 4.33951
rclavicle 1.69961e-014 1.68967e-014
rhumerus -11.6319 17.766 -92.2373
rradius 53.5862
rwrist 14.6305
rhand -3.68754 82.8366
rfingers 7.12502
rthumb 22.054 414.074
lclavicle 1.69961e-014 1.68967e-014
lhumerus -5.25291 20.95 27.1489
lradius 99.9594
lwrist 67.6152
lhand 23.1222 -311.135
lfingers 7.12502
lthumb 47.4318 -2088.66
rfemur -3.53742 -16.4896 33.9532
rtibia 21.9496
rfoot -20.8179 1.17908
rtoes -27.0631
lfemur -45.8478 12.2963 -9.78843
ltibia 65.6187
lfoot -23.5601 13.174
ltoes -25.418
